<svg xmlns="http://www.w3.org/2000/svg" version="1.1" xmlns:xlink="http://www.w3.org/1999/xlink" xmlns:svgjs="http://svgjs.dev/svgjs" viewBox="0 0 800 800"><defs><linearGradient x1="50%" y1="0%" x2="50%" y2="100%" id="ffflurry-grad" gradientTransform="rotate(270)"><stop stop-color="hsl(238, 82%, 13%)" stop-opacity="1" offset="0%"></stop><stop stop-color="hsl(1.4, 100%, 67%)" stop-opacity="1" offset="45%"></stop><stop stop-color="hsl(167, 52%, 78%)" stop-opacity="1" offset="100%"></stop></linearGradient></defs><rect width="100%" height="100%" fill="hsl(238, 82%, 13%)"></rect><g fill="url(#ffflurry-grad)"><rect width="565" height="3" x="94.5" y="429.5" rx="1.5" transform="rotate(45, 377, 431)" opacity="0.88"></rect><rect width="337" height="3" x="-125.5" y="726.5" rx="1.5" transform="rotate(45, 43, 728)" opacity="0.51"></rect><rect width="189" height="3" x="666.5" y="689.5" rx="1.5" transform="rotate(45, 761, 691)" opacity="0.70"></rect><rect width="515" height="3" x="359.5" y="269.5" rx="1.5" transform="rotate(45, 617, 271)" opacity="0.34"></rect><rect width="280" height="3" x="375" y="331.5" rx="1.5" transform="rotate(45, 515, 333)" opacity="0.18"></rect><rect width="434" height="3" x="68" y="576.5" rx="1.5" transform="rotate(45, 285, 578)" opacity="0.28"></rect><rect width="534" height="3" x="128" y="281.5" rx="1.5" transform="rotate(45, 395, 283)" opacity="0.44"></rect><rect width="141" height="3" x="338.5" y="199.5" rx="1.5" transform="rotate(45, 409, 201)" opacity="0.41"></rect><rect width="315" height="3" x="158.5" y="21.5" rx="1.5" transform="rotate(45, 316, 23)" opacity="0.90"></rect><rect width="373" height="3" x="-137.5" y="159.5" rx="1.5" transform="rotate(45, 49, 161)" opacity="0.83"></rect><rect width="471" height="3" x="450.5" y="574.5" rx="1.5" transform="rotate(45, 686, 576)" opacity="0.33"></rect><rect width="347" height="3" x="161.5" y="181.5" rx="1.5" transform="rotate(45, 335, 183)" opacity="0.76"></rect><rect width="422" height="3" x="349" y="465.5" rx="1.5" transform="rotate(45, 560, 467)" opacity="0.87"></rect><rect width="440" height="3" x="413" y="432.5" rx="1.5" transform="rotate(45, 633, 434)" opacity="0.89"></rect><rect width="50" height="3" x="393" y="750.5" rx="1.5" transform="rotate(45, 418, 752)" opacity="0.38"></rect><rect width="336" height="3" x="345" y="203.5" rx="1.5" transform="rotate(45, 513, 205)" opacity="0.96"></rect><rect width="606" height="3" x="-84" y="117.5" rx="1.5" transform="rotate(45, 219, 119)" opacity="0.62"></rect><rect width="337" height="3" x="315.5" y="531.5" rx="1.5" transform="rotate(45, 484, 533)" opacity="0.53"></rect><rect width="322" height="3" x="119" y="212.5" rx="1.5" transform="rotate(45, 280, 214)" opacity="0.33"></rect><rect width="179" height="3" x="409.5" y="47.5" rx="1.5" transform="rotate(45, 499, 49)" opacity="0.63"></rect><rect width="352" height="3" x="568" y="230.5" rx="1.5" transform="rotate(45, 744, 232)" opacity="0.78"></rect><rect width="186" height="3" x="232" y="705.5" rx="1.5" transform="rotate(45, 325, 707)" opacity="0.81"></rect><rect width="504" height="3" x="-41" y="325.5" rx="1.5" transform="rotate(45, 211, 327)" opacity="0.13"></rect><rect width="471" height="3" x="139.5" y="113.5" rx="1.5" transform="rotate(45, 375, 115)" opacity="0.88"></rect><rect width="426" height="3" x="205" y="498.5" rx="1.5" transform="rotate(45, 418, 500)" opacity="0.81"></rect><rect width="361" height="3" x="403.5" y="181.5" rx="1.5" transform="rotate(45, 584, 183)" opacity="0.95"></rect><rect width="82" height="3" x="113" y="47.5" rx="1.5" transform="rotate(45, 154, 49)" opacity="0.78"></rect><rect width="455" height="3" x="352.5" y="660.5" rx="1.5" transform="rotate(45, 580, 662)" opacity="0.71"></rect><rect width="401" height="3" x="151.5" y="610.5" rx="1.5" transform="rotate(45, 352, 612)" opacity="0.32"></rect><rect width="175" height="3" x="157.5" y="749.5" rx="1.5" transform="rotate(45, 245, 751)" opacity="0.42"></rect><rect width="524" height="3" x="282" y="568.5" rx="1.5" transform="rotate(45, 544, 570)" opacity="0.09"></rect><rect width="202" height="3" x="667" y="400.5" rx="1.5" transform="rotate(45, 768, 402)" opacity="0.34"></rect><rect width="632" height="3" x="2" y="309.5" rx="1.5" transform="rotate(45, 318, 311)" opacity="0.24"></rect><rect width="192" height="3" x="104" y="540.5" rx="1.5" transform="rotate(45, 200, 542)" opacity="0.18"></rect><rect width="76" height="3" x="551" y="25.5" rx="1.5" transform="rotate(45, 589, 27)" opacity="0.89"></rect><rect width="471" height="3" x="246.5" y="442.5" rx="1.5" transform="rotate(45, 482, 444)" opacity="0.51"></rect><rect width="217" height="3" x="287.5" y="27.5" rx="1.5" transform="rotate(45, 396, 29)" opacity="0.96"></rect><rect width="502" height="3" x="173" y="363.5" rx="1.5" transform="rotate(45, 424, 365)" opacity="0.24"></rect><rect width="64" height="3" x="425" y="131.5" rx="1.5" transform="rotate(45, 457, 133)" opacity="0.99"></rect><rect width="557" height="3" x="-102.5" y="466.5" rx="1.5" transform="rotate(45, 176, 468)" opacity="0.28"></rect><rect width="170" height="3" x="385" y="265.5" rx="1.5" transform="rotate(45, 470, 267)" opacity="0.43"></rect><rect width="348" height="3" x="135" y="496.5" rx="1.5" transform="rotate(45, 309, 498)" opacity="0.56"></rect><rect width="293" height="3" x="604.5" y="137.5" rx="1.5" transform="rotate(45, 751, 139)" opacity="0.10"></rect><rect width="499" height="3" x="-196.5" y="460.5" rx="1.5" transform="rotate(45, 53, 462)" opacity="0.91"></rect><rect width="735" height="3" x="-236.5" y="380.5" rx="1.5" transform="rotate(45, 131, 382)" opacity="0.73"></rect><rect width="159" height="3" x="163.5" y="35.5" rx="1.5" transform="rotate(45, 243, 37)" opacity="0.66"></rect><rect width="300" height="3" x="-113" y="316.5" rx="1.5" transform="rotate(45, 37, 318)" opacity="0.97"></rect><rect width="682" height="3" x="323" y="662.5" rx="1.5" transform="rotate(45, 664, 664)" opacity="0.16"></rect><rect width="294" height="3" x="147" y="102.5" rx="1.5" transform="rotate(45, 294, 104)" opacity="0.97"></rect><rect width="424" height="3" x="343" y="95.5" rx="1.5" transform="rotate(45, 555, 97)" opacity="0.40"></rect><rect width="219" height="3" x="659.5" y="48.5" rx="1.5" transform="rotate(45, 769, 50)" opacity="0.89"></rect><rect width="388" height="3" x="-44" y="163.5" rx="1.5" transform="rotate(45, 150, 165)" opacity="0.80"></rect><rect width="398" height="3" x="243" y="582.5" rx="1.5" transform="rotate(45, 442, 584)" opacity="0.21"></rect><rect width="471" height="3" x="174.5" y="650.5" rx="1.5" transform="rotate(45, 410, 652)" opacity="0.32"></rect><rect width="206" height="3" x="555" y="156.5" rx="1.5" transform="rotate(45, 658, 158)" opacity="0.61"></rect><rect width="539" height="3" x="441.5" y="480.5" rx="1.5" transform="rotate(45, 711, 482)" opacity="0.92"></rect><rect width="531" height="3" x="318.5" y="362.5" rx="1.5" transform="rotate(45, 584, 364)" opacity="0.19"></rect><rect width="659" height="3" x="-118.5" y="635.5" rx="1.5" transform="rotate(45, 211, 637)" opacity="0.63"></rect><rect width="314" height="3" x="600" y="604.5" rx="1.5" transform="rotate(45, 757, 606)" opacity="0.87"></rect><rect width="70" height="3" x="177" y="235.5" rx="1.5" transform="rotate(45, 212, 237)" opacity="0.93"></rect><rect width="465" height="3" x="-124.5" y="261.5" rx="1.5" transform="rotate(45, 108, 263)" opacity="0.51"></rect><rect width="334" height="3" x="558" y="308.5" rx="1.5" transform="rotate(45, 725, 310)" opacity="0.42"></rect><rect width="143" height="3" x="550.5" y="544.5" rx="1.5" transform="rotate(45, 622, 546)" opacity="0.66"></rect><rect width="478" height="3" x="-183" y="49.5" rx="1.5" transform="rotate(45, 56, 51)" opacity="0.93"></rect><rect width="390" height="3" x="572" y="526.5" rx="1.5" transform="rotate(45, 767, 528)" opacity="0.62"></rect><rect width="438" height="3" x="269" y="660.5" rx="1.5" transform="rotate(45, 488, 662)" opacity="0.68"></rect><rect width="200" height="3" x="-28" y="588.5" rx="1.5" transform="rotate(45, 72, 590)" opacity="0.25"></rect><rect width="194" height="3" x="456" y="753.5" rx="1.5" transform="rotate(45, 553, 755)" opacity="0.22"></rect><rect width="272" height="3" x="237" y="541.5" rx="1.5" transform="rotate(45, 373, 543)" opacity="0.80"></rect><rect width="148" height="3" x="581" y="70.5" rx="1.5" transform="rotate(45, 655, 72)" opacity="0.99"></rect><rect width="265" height="3" x="309.5" y="45.5" rx="1.5" transform="rotate(45, 442, 47)" opacity="0.34"></rect><rect width="478" height="3" x="-102" y="724.5" rx="1.5" transform="rotate(45, 137, 726)" opacity="0.39"></rect><rect width="391" height="3" x="155.5" y="57.5" rx="1.5" transform="rotate(45, 351, 59)" opacity="0.64"></rect><rect width="71" height="3" x="669.5" y="30.5" rx="1.5" transform="rotate(45, 705, 32)" opacity="0.81"></rect><rect width="203" height="3" x="175.5" y="407.5" rx="1.5" transform="rotate(45, 277, 409)" opacity="0.49"></rect><rect width="549" height="3" x="412.5" y="381.5" rx="1.5" transform="rotate(45, 687, 383)" opacity="0.67"></rect><rect width="392" height="3" x="509" y="758.5" rx="1.5" transform="rotate(45, 705, 760)" opacity="0.56"></rect></g></svg>